<svg width="193" height="49" viewBox="0 0 193 49" fill="none" xmlns="http://www.w3.org/2000/svg">
<path d="M71.0581 15.9558H70.3405V46.0683H71.0581V15.9558Z" fill="#0C3E78"/>
<path d="M5.29935 24.9484C5.51489 25.1374 5.78432 25.3295 6.10372 25.5201C6.42313 25.7106 6.7808 25.8848 7.17596 26.0386C7.56956 26.1909 7.99674 26.3159 8.45359 26.4127C8.91044 26.5088 9.38369 26.5564 9.87413 26.5564C10.88 26.5564 11.6617 26.3791 12.2177 26.0253C12.773 25.6731 13.0526 25.1851 13.0526 24.5611C13.0526 24.187 12.9589 23.8684 12.7738 23.6068C12.5863 23.3451 12.3286 23.1109 11.9999 22.9024C11.6711 22.6938 11.2845 22.5056 10.8409 22.3346C10.3966 22.1651 9.91552 21.9886 9.40009 21.8051C8.36925 21.4318 7.51645 21.0593 6.83859 20.6892C6.16151 20.319 5.62266 19.916 5.22438 19.4802C4.82532 19.0437 4.54496 18.5533 4.3833 18.0089C4.22087 17.4654 4.13887 16.8352 4.13887 16.1206C4.13887 15.3639 4.29193 14.6673 4.60041 14.0324C4.9081 13.3975 5.33996 12.8469 5.89756 12.3869C6.45437 11.9254 7.11739 11.5662 7.88506 11.3084C8.65507 11.0515 9.49615 10.9219 10.4106 10.9219C11.3009 10.9219 12.0811 11.0086 12.7543 11.1827C13.4266 11.3569 14.01 11.563 14.4997 11.8028C14.9893 12.0433 15.3946 12.2893 15.7148 12.5423C16.0358 12.7946 16.2904 12.9984 16.4809 13.1562L14.9112 15.5599C14.7691 15.4186 14.5551 15.2561 14.2685 15.0734C13.9819 14.8906 13.6469 14.7157 13.265 14.5509C12.8823 14.3846 12.4708 14.2448 12.0311 14.1323C11.5899 14.0191 11.1533 13.9644 10.7207 13.9644C10.2732 13.9644 9.87803 14.0144 9.53676 14.1144C9.1947 14.2151 8.91122 14.3487 8.6824 14.5197C8.45359 14.6899 8.281 14.8922 8.16542 15.1249C8.04828 15.3576 7.98971 15.6068 7.98971 15.8731C7.98971 16.1979 8.06233 16.4767 8.20837 16.7087C8.35285 16.9422 8.57385 17.1538 8.86905 17.3459C9.16269 17.5365 9.5391 17.7231 9.99673 17.9066C10.4536 18.0902 10.9948 18.294 11.618 18.5189C12.5481 18.8508 13.3462 19.1975 14.0116 19.5599C14.6762 19.9223 15.2236 20.3346 15.6508 20.7961C16.0795 21.2577 16.395 21.7817 16.5988 22.3674C16.8027 22.9539 16.9034 23.6341 16.9034 24.408C16.9034 25.107 16.7511 25.7708 16.4434 26.3971C16.1357 27.0257 15.6953 27.5763 15.1221 28.0503C14.5481 28.5228 13.8499 28.9 13.0276 29.1788C12.2037 29.4576 11.2767 29.5966 10.2466 29.5966C9.43914 29.5966 8.69334 29.5248 8.00845 29.3787C7.322 29.2335 6.70505 29.0507 6.15683 28.8297C5.60782 28.6103 5.12832 28.369 4.71833 28.1066C4.30521 27.8457 3.96706 27.5974 3.70154 27.3654L5.29935 24.9484Z" fill="#0C3E78"/>
<path d="M30.1475 21.4694H23.6641V26.2957H31.4438V29.3374H19.7859V11.1836H31.3197V14.2262H23.6641V18.4276H30.1475V21.4694Z" fill="#0C3E78"/>
<path d="M42.9275 25.6459H37.6788L36.6807 29.3374H32.7659L38.2512 11.1843H42.3668L47.8529 29.3374H43.9373L42.9275 25.6459ZM38.5011 22.6033H42.1044L40.334 15.8965H40.259L38.5011 22.6033Z" fill="#0C3E78"/>
<path d="M50.0959 29.3367V11.1836H55.8687C57.1065 11.1836 58.1998 11.3944 59.1479 11.8138C60.0952 12.234 60.8894 12.8197 61.529 13.5717C62.1686 14.3246 62.6512 15.2219 62.9753 16.2644C63.2986 17.3078 63.4618 18.4479 63.4618 19.6865V20.8462C63.4618 22.1426 63.2892 23.314 62.944 24.362C62.5997 25.4069 62.1006 26.2996 61.447 27.036C60.7964 27.7709 59.9991 28.3386 59.0604 28.7369C58.1217 29.1367 57.0573 29.3367 55.8687 29.3367H50.0959ZM53.9741 26.2957H55.3611C55.9273 26.2957 56.4247 26.2269 56.8542 26.0957C57.2838 25.9614 57.6539 25.7771 57.9663 25.5342C58.2787 25.2929 58.5395 25.0048 58.7472 24.6697C58.9558 24.3331 59.1213 23.9638 59.2471 23.56C59.372 23.157 59.4595 22.726 59.5087 22.2652C59.5594 21.8037 59.5844 21.3281 59.5844 20.8384V19.6553C59.5844 18.8587 59.518 18.1285 59.3853 17.4632C59.251 16.7986 59.0221 16.2285 58.6973 15.7506C58.3716 15.2742 57.9398 14.9001 57.397 14.6283C56.8566 14.3597 56.1772 14.2246 55.3611 14.2246H53.9741V26.2957Z" fill="#0C3E78"/>
<path d="M21.1527 4.62978C18.3421 2.42595 14.5974 1.07804 10.4818 1.07179C6.36861 1.06633 2.81687 2.57199 0 4.76801L0.989457 5.61611C3.52362 3.5716 6.94416 2.3213 10.7068 2.32599C14.353 2.33224 17.6759 3.51849 20.1788 5.4607L21.1527 4.62978Z" fill="#0C3E78"/>
<path d="M3.69777 7.93628C5.52908 6.51105 7.96641 5.6442 10.6404 5.64889C13.2308 5.65279 15.5955 6.47278 17.4018 7.8246L18.403 6.97103C16.2968 5.36697 13.5205 4.38922 10.4779 4.38454C7.43381 4.37985 4.65442 5.34822 2.54431 6.9476" fill="#0C3E78"/>
<path d="M6.29137 10.1588C7.44638 9.3294 8.93721 8.83272 10.5647 8.83584C12.1438 8.83741 13.5924 9.31066 14.7303 10.0994L15.772 9.21304C14.3656 8.20016 12.5491 7.58711 10.567 7.58399C8.53424 7.58165 6.67715 8.21656 5.25427 9.27005L6.29137 10.1588Z" fill="#0C3E78"/>
<path d="M29.9313 33.7966V43.1071C29.9313 43.9036 29.7939 44.6018 29.519 45.2031C29.2457 45.8029 28.8724 46.3042 28.4007 46.7088C27.9282 47.1149 27.3753 47.4194 26.7404 47.6225C26.1063 47.8271 25.4284 47.9294 24.7076 47.9294C23.9352 47.9294 23.2277 47.8224 22.5834 47.6076C21.9391 47.396 21.3855 47.0828 20.9239 46.6713C20.4616 46.2613 20.1 45.7545 19.8423 45.1555C19.5838 44.5557 19.455 43.8755 19.455 43.1086V33.7966H22.4304V43.0992C22.4304 43.952 22.6264 44.5815 23.0192 44.9876C23.412 45.3921 23.9727 45.5944 24.7021 45.5944C25.4378 45.5944 25.9961 45.396 26.3796 45.0008C26.763 44.6073 26.9544 43.9716 26.9544 43.0985V33.7966H29.9313Z" fill="#0C3E78"/>
<path d="M40.446 42.0348H35.6815V47.7287H32.7061V33.7966H41.4503V36.1317H35.6822V39.7006H40.4468L40.446 42.0348Z" fill="#0C3E78"/>
<path d="M51.3237 41.692H46.3491V45.3937H52.3194V47.7287H43.3737V33.7966H52.2241V36.1317H46.3491V39.3562H51.3245L51.3237 41.692Z" fill="#0C3E78"/>
<path d="M54.8543 44.3612C55.0199 44.5064 55.2253 44.654 55.472 44.8008C55.7172 44.9477 55.9921 45.0796 56.2951 45.1991C56.5982 45.3163 56.9254 45.4108 57.2752 45.4857C57.6259 45.5591 57.9898 45.5958 58.3654 45.5958C59.137 45.5958 59.736 45.46 60.164 45.1898C60.5911 44.9164 60.8043 44.5431 60.8043 44.0644C60.8043 43.7778 60.7325 43.5334 60.5903 43.3319C60.4467 43.132 60.2483 42.9508 59.9968 42.7923C59.7446 42.6322 59.4478 42.4869 59.1065 42.3557C58.7645 42.2261 58.3967 42.0902 58.0007 41.9488C57.2096 41.6622 56.5544 41.3787 56.0343 41.0929C55.5142 40.811 55.1019 40.501 54.795 40.1652C54.4888 39.8309 54.2741 39.4545 54.1499 39.0367C54.0257 38.6189 53.9625 38.137 53.9625 37.5865C53.9625 37.007 54.0812 36.4729 54.317 35.9848C54.5529 35.4967 54.8848 35.0757 55.3112 34.722C55.7383 34.3682 56.2475 34.0902 56.8371 33.8934C57.4275 33.6966 58.0726 33.5974 58.7747 33.5974C59.4572 33.5974 60.0562 33.663 60.5732 33.7973C61.0894 33.9317 61.5361 34.0886 61.9125 34.2745C62.2889 34.4572 62.5997 34.647 62.8457 34.8407C63.0901 35.0343 63.2869 35.1913 63.433 35.3124L62.2272 37.1562C62.1194 37.0492 61.9547 36.9242 61.7344 36.7837C61.515 36.6431 61.2581 36.5088 60.9644 36.3823C60.6708 36.2526 60.3553 36.1456 60.0171 36.0605C59.679 35.9754 59.344 35.9309 59.0128 35.9309C58.6684 35.9309 58.3654 35.9707 58.1046 36.0465C57.843 36.123 57.6235 36.2261 57.4486 36.3573C57.2729 36.4885 57.1417 36.6423 57.0519 36.8227C56.9629 37 56.9183 37.1921 56.9183 37.3959C56.9183 37.6458 56.9738 37.8598 57.0855 38.0363C57.1979 38.2159 57.3658 38.3791 57.5931 38.526C57.8188 38.6728 58.1077 38.8157 58.4584 38.9563C58.809 39.0968 59.2229 39.2538 59.7024 39.4264C60.4178 39.681 61.0285 39.9465 61.5392 40.2253C62.0499 40.5025 62.4685 40.8188 62.7973 41.1726C63.1261 41.5263 63.3682 41.9309 63.5244 42.3807C63.6813 42.8305 63.7586 43.3522 63.7586 43.9473C63.7586 44.4814 63.6407 44.9906 63.4049 45.4725C63.169 45.9543 62.8309 46.3768 62.3904 46.7415C61.9508 47.1046 61.4142 47.3944 60.7832 47.606C60.1515 47.8208 59.4416 47.9277 58.6497 47.9277C58.0312 47.9277 57.4588 47.8731 56.9332 47.7598C56.4068 47.6497 55.9328 47.5099 55.5119 47.3405C55.0917 47.171 54.7239 46.9867 54.4068 46.7837C54.0905 46.5837 53.8313 46.3948 53.6274 46.2144L54.8543 44.3612Z" fill="#0C3E78"/>
<path d="M80.3483 24.4328C79.8306 24.2845 79.4049 24.1158 79.0723 23.9268C78.7388 23.7378 78.4748 23.5308 78.2804 23.3036C78.0859 23.0771 77.95 22.8319 77.8743 22.5695C77.7978 22.3063 77.7603 22.0252 77.7603 21.7237C77.7603 21.3786 77.8259 21.0599 77.9586 20.7686C78.0914 20.4781 78.2718 20.229 78.5014 20.0197C78.7294 19.8104 78.9973 19.6488 79.3042 19.5324C79.6111 19.416 79.9414 19.3567 80.2952 19.3567C80.6123 19.3567 80.8973 19.3817 81.1504 19.4293C81.4026 19.4785 81.6353 19.5465 81.8485 19.6378C82.0617 19.7276 82.2609 19.8354 82.4452 19.9596C82.6302 20.0845 82.813 20.2204 82.9918 20.3696L82.499 21.188C82.3475 21.0513 82.1835 20.9303 82.0055 20.8233C81.829 20.7171 81.6486 20.6281 81.4619 20.5562C81.2753 20.4844 81.0879 20.4297 80.9012 20.3938C80.7146 20.3579 80.535 20.3391 80.3624 20.3391C79.8735 20.3391 79.5135 20.4648 79.2855 20.7155C79.0566 20.967 78.9418 21.302 78.9418 21.7245C78.9418 21.901 78.9707 22.0619 79.0262 22.2087C79.0824 22.3547 79.1785 22.4898 79.3151 22.6124C79.4518 22.7351 79.6345 22.8499 79.8634 22.9584C80.0922 23.067 80.3796 23.1708 80.7247 23.2716C81.2433 23.4246 81.6603 23.5972 81.9797 23.7893C82.2999 23.9822 82.5475 24.1946 82.7232 24.4242C82.9005 24.6546 83.0192 24.9014 83.0785 25.1654C83.1379 25.4262 83.1699 25.7026 83.1699 25.9861C83.1699 26.3321 83.1027 26.6499 82.9668 26.9381C82.8325 27.2263 82.6451 27.4777 82.4014 27.6917C82.1586 27.9033 81.8704 28.0697 81.5377 28.1876C81.205 28.3048 80.8395 28.3649 80.442 28.3649C79.8321 28.3649 79.2878 28.2735 78.8106 28.0884C78.3327 27.9041 77.9141 27.6581 77.5518 27.3536L78.0461 26.5344C78.1984 26.6749 78.3702 26.7983 78.5607 26.9022C78.7513 27.0076 78.9512 27.0959 79.1597 27.1677C79.369 27.2411 79.5791 27.2942 79.7899 27.3309C80.0008 27.3661 80.1999 27.384 80.3889 27.384C80.649 27.384 80.8794 27.3489 81.0777 27.2786C81.2769 27.2067 81.4448 27.1107 81.5775 26.9857C81.7119 26.8624 81.8142 26.7155 81.8829 26.5461C81.95 26.3766 81.9844 26.1954 81.9844 26.0002C81.9844 25.8143 81.9657 25.6464 81.925 25.4996C81.8844 25.3504 81.8056 25.2146 81.6869 25.0896C81.5674 24.9647 81.4034 24.8506 81.1894 24.7436C80.9731 24.6359 80.6943 24.532 80.3483 24.4328Z" fill="#0C3E78"/>
<path d="M88.6857 27.4013C88.4951 27.7387 88.2343 27.9855 87.911 28.1424C87.5861 28.2978 87.2277 28.3759 86.8387 28.3759C86.5154 28.3759 86.2257 28.3197 85.9696 28.2111C85.7134 28.0995 85.4979 27.9308 85.3229 27.702C85.1457 27.4732 85.0106 27.1834 84.9161 26.8328C84.8216 26.4806 84.7739 26.0659 84.7739 25.5817V21.7363H85.9789V25.5958C85.9789 25.9402 86.0016 26.2291 86.0476 26.4618C86.0937 26.6945 86.1617 26.8828 86.2538 27.0264C86.3421 27.167 86.4569 27.2693 86.5967 27.3334C86.7341 27.3943 86.8973 27.4247 87.0863 27.4247C87.2675 27.4247 87.4323 27.399 87.5822 27.3435C87.7329 27.2904 87.8688 27.2139 87.9891 27.1178C88.1093 27.0233 88.2163 26.9101 88.3077 26.7836C88.3991 26.6586 88.4803 26.5212 88.549 26.3767L88.5365 21.7363H89.7525V26.8054C89.7618 27.0022 89.7876 27.1639 89.8321 27.2904C89.8751 27.4154 89.9664 27.5356 90.1023 27.6473L89.5564 28.3705C89.419 28.3213 89.2972 28.2533 89.1949 28.1627C89.0894 28.0729 88.9996 27.9784 88.9262 27.8792C88.8512 27.7816 88.795 27.6887 88.7536 27.6004C88.713 27.5106 88.6904 27.445 88.6857 27.4013Z" fill="#0C3E78"/>
<path d="M96.9786 25.3911C96.9786 25.8362 96.9239 26.2407 96.8185 26.6101C96.7115 26.9764 96.5576 27.2903 96.3608 27.5527C96.1625 27.812 95.9173 28.015 95.626 28.1595C95.3347 28.3032 95.0067 28.3758 94.642 28.3758C93.9282 28.3758 93.3792 28.1197 92.9981 27.6058V30.7538H91.7931V21.7355H92.7818L92.902 22.5547C93.091 22.2649 93.3323 22.0369 93.6252 21.8682C93.918 21.6995 94.2523 21.616 94.6303 21.616C95.0028 21.616 95.3347 21.6964 95.626 21.8573C95.9173 22.0174 96.164 22.2438 96.364 22.5344C96.5639 22.8249 96.7162 23.1747 96.8216 23.5824C96.9255 23.99 96.9786 24.4391 96.9786 24.928V25.3911ZM95.7736 24.9272C95.7736 24.5906 95.7415 24.2766 95.6806 23.9877C95.6166 23.698 95.5252 23.4496 95.4003 23.2411C95.2769 23.0318 95.1215 22.8686 94.9333 22.7507C94.7474 22.632 94.5319 22.5734 94.2867 22.5734C94.1344 22.5734 93.9922 22.6031 93.8626 22.6632C93.7314 22.7241 93.6127 22.8022 93.5026 22.8983C93.3956 22.9951 93.298 23.1044 93.2144 23.2271C93.1309 23.3489 93.0574 23.4723 92.9981 23.5972V26.3829C93.0621 26.5125 93.1371 26.639 93.2207 26.7655C93.3042 26.892 93.4018 27.0084 93.5088 27.1084C93.6189 27.2107 93.7376 27.2927 93.8688 27.3551C94 27.4176 94.1406 27.4481 94.2929 27.4481C94.5444 27.4481 94.7646 27.3981 94.9489 27.2958C95.1316 27.1919 95.2863 27.0506 95.4096 26.8655C95.5315 26.6796 95.6229 26.4625 95.683 26.2126C95.7439 25.9611 95.7744 25.6863 95.7744 25.3903L95.7736 24.9272Z" fill="#0C3E78"/>
<path d="M100.99 28.3758C100.568 28.3758 100.19 28.3008 99.854 28.1485C99.5182 27.9962 99.2331 27.7823 99.0012 27.5128C98.7677 27.2411 98.5912 26.9178 98.467 26.5429C98.3452 26.168 98.2827 25.7573 98.2827 25.3121V24.867C98.2827 24.457 98.3374 24.0587 98.4475 23.669C98.556 23.2793 98.7193 22.9326 98.9403 22.6272C99.1613 22.3219 99.4409 22.0775 99.7759 21.8939C100.11 21.7096 100.504 21.6167 100.955 21.6167C101.361 21.6167 101.715 21.6846 102.018 21.8213C102.322 21.9572 102.573 22.1501 102.773 22.3984C102.976 22.6468 103.125 22.9474 103.226 23.2989C103.327 23.6503 103.377 24.0408 103.377 24.4695V25.2778H99.5057C99.5057 25.2809 99.5057 25.2809 99.5026 25.2778C99.501 25.2731 99.4994 25.2731 99.4994 25.2778C99.5041 25.5659 99.5424 25.8455 99.6134 26.1134C99.6869 26.382 99.7962 26.6171 99.943 26.8178C100.09 27.0185 100.273 27.1778 100.494 27.2934C100.713 27.4105 100.974 27.4613 101.271 27.4488C101.561 27.4363 101.848 27.3848 102.134 27.2903C102.419 27.1958 102.684 27.0458 102.929 26.842L103.292 27.6136C102.956 27.89 102.589 28.0853 102.192 28.2024C101.799 28.318 101.396 28.3758 100.99 28.3758ZM100.891 22.5546C100.702 22.5546 100.529 22.6007 100.369 22.6928C100.212 22.7858 100.072 22.9115 99.9547 23.0724C99.836 23.2325 99.7384 23.4207 99.6619 23.6378C99.5853 23.8541 99.5385 24.09 99.5166 24.3414C99.5213 24.3461 99.5244 24.357 99.5244 24.3727C99.5244 24.3883 99.5244 24.3976 99.5244 24.4023H102.174V24.1556C102.174 23.9275 102.147 23.7159 102.093 23.5206C102.037 23.3254 101.955 23.1559 101.849 23.0115C101.738 22.867 101.604 22.7545 101.444 22.6741C101.285 22.5952 101.1 22.5546 100.891 22.5546Z" fill="#0C3E78"/>
<path d="M107.935 22.7781C107.839 22.7695 107.745 22.7617 107.656 22.7531C107.565 22.7453 107.461 22.7406 107.346 22.7406C107.057 22.7406 106.818 22.8179 106.629 22.9694C106.441 23.1217 106.296 23.3325 106.195 23.6012V28.2486H104.992V21.7355H106.021L106.154 22.7054C106.306 22.3681 106.511 22.1018 106.767 21.9073C107.023 21.7129 107.314 21.6152 107.641 21.6152C107.722 21.6152 107.802 21.6223 107.885 21.6355C107.966 21.6504 108.036 21.6676 108.093 21.6879L107.935 22.7781Z" fill="#0C3E78"/>
<path d="M110.505 20.0502H109.302V18.8577H110.505V20.0502ZM110.505 28.2493H109.302V21.7362H110.505V28.2493Z" fill="#0C3E78"/>
<path d="M113.528 21.7355L113.649 22.7054C113.845 22.3633 114.1 22.097 114.412 21.9041C114.721 21.712 115.072 21.616 115.46 21.616C115.777 21.616 116.061 21.6667 116.309 21.769C116.559 21.8713 116.77 22.0283 116.941 22.2384C117.115 22.45 117.247 22.7148 117.336 23.0365C117.428 23.3575 117.472 23.7362 117.472 24.1743V28.2493H116.269V24.1923C116.269 23.9158 116.238 23.6745 116.176 23.4699C116.113 23.2645 116.029 23.0959 115.923 22.9639C115.817 22.8319 115.692 22.7335 115.555 22.6695C115.416 22.6046 115.27 22.5734 115.113 22.5734C114.868 22.5734 114.622 22.6499 114.373 22.8022C114.124 22.9537 113.906 23.1747 113.722 23.4645V28.2493H112.519V21.7362L113.528 21.7355Z" fill="#0C3E78"/>
<path d="M120.837 21.7355H122.143V22.6148H120.837V26.5266C120.837 26.8483 120.895 27.0771 121.013 27.2099C121.129 27.3458 121.295 27.4114 121.512 27.4114C121.597 27.4114 121.689 27.3989 121.791 27.3731C121.895 27.3473 121.988 27.3184 122.077 27.2864L122.215 28.1119C122.16 28.1439 122.088 28.1743 122.002 28.2079C121.917 28.2399 121.824 28.2673 121.725 28.2915C121.626 28.3141 121.528 28.336 121.426 28.3524C121.327 28.3688 121.236 28.3751 121.15 28.3751C120.913 28.3751 120.703 28.3399 120.514 28.2712C120.328 28.1993 120.17 28.09 120.04 27.9416C119.909 27.7925 119.81 27.6027 119.739 27.3723C119.669 27.1404 119.632 26.8663 119.632 26.5437V22.6132H118.694V21.7339H119.632V20.1384H120.837V21.7355Z" fill="#0C3E78"/>
<path d="M125.904 28.3758C125.48 28.3758 125.102 28.3008 124.768 28.1485C124.43 27.9962 124.147 27.7823 123.913 27.5128C123.681 27.2411 123.503 26.9178 123.381 26.5429C123.257 26.168 123.196 25.7573 123.196 25.3121V24.867C123.196 24.457 123.25 24.0587 123.36 23.669C123.467 23.2793 123.633 22.9326 123.854 22.6272C124.073 22.3219 124.353 22.0775 124.688 21.8939C125.022 21.7096 125.416 21.6167 125.866 21.6167C126.273 21.6167 126.627 21.6846 126.93 21.8213C127.235 21.9572 127.485 22.1501 127.687 22.3984C127.888 22.6468 128.039 22.9474 128.138 23.2989C128.239 23.6503 128.289 24.0408 128.289 24.4695V25.2778H124.418C124.418 25.2809 124.418 25.2809 124.415 25.2778C124.413 25.2731 124.413 25.2731 124.413 25.2778C124.416 25.5659 124.455 25.8455 124.526 26.1134C124.6 26.382 124.709 26.6171 124.856 26.8178C125.003 27.0185 125.185 27.1778 125.406 27.2934C125.627 27.4105 125.887 27.4613 126.184 27.4488C126.474 27.4363 126.761 27.3848 127.046 27.2903C127.332 27.1958 127.597 27.0458 127.841 26.842L128.208 27.6136C127.869 27.89 127.502 28.0853 127.105 28.2024C126.711 28.318 126.308 28.3758 125.904 28.3758ZM125.804 22.5546C125.615 22.5546 125.442 22.6007 125.282 22.6928C125.125 22.7858 124.986 22.9115 124.869 23.0724C124.749 23.2325 124.653 23.4207 124.576 23.6378C124.5 23.8541 124.451 24.09 124.431 24.3414C124.434 24.3461 124.437 24.357 124.437 24.3727C124.437 24.3883 124.437 24.3976 124.437 24.4023H127.087V24.1556C127.087 23.9275 127.06 23.7159 127.006 23.5206C126.951 23.3254 126.87 23.1559 126.761 23.0115C126.651 22.867 126.517 22.7545 126.357 22.6741C126.197 22.5952 126.012 22.5546 125.804 22.5546Z" fill="#0C3E78"/>
<path d="M130.914 21.7355L131.035 22.7054C131.231 22.3633 131.485 22.097 131.796 21.9041C132.108 21.712 132.458 21.616 132.847 21.616C133.164 21.616 133.449 21.6667 133.697 21.769C133.945 21.8713 134.156 22.0283 134.329 22.2384C134.503 22.45 134.633 22.7148 134.724 23.0365C134.814 23.3575 134.86 23.7362 134.86 24.1743V28.2493H133.655V24.1923C133.655 23.9158 133.624 23.6745 133.562 23.4699C133.499 23.2645 133.414 23.0959 133.31 22.9639C133.202 22.8319 133.08 22.7335 132.943 22.6695C132.804 22.6046 132.656 22.5734 132.501 22.5734C132.255 22.5734 132.008 22.6499 131.759 22.8022C131.511 22.9537 131.294 23.1747 131.108 23.4645V28.2493H129.905V21.7362L130.914 21.7355Z" fill="#0C3E78"/>
<path d="M136.49 25.0951C136.49 24.5828 136.539 24.1119 136.635 23.684C136.733 23.256 136.879 22.889 137.075 22.582C137.27 22.2744 137.52 22.0369 137.819 21.8683C138.118 21.6996 138.469 21.616 138.875 21.616C139.221 21.616 139.526 21.6863 139.79 21.8269C140.055 21.9682 140.284 22.1681 140.476 22.429V18.8647H141.681V26.8054C141.681 27.0233 141.71 27.1896 141.771 27.3114C141.831 27.4302 141.918 27.5418 142.03 27.6426L141.488 28.3704C141.44 28.3595 141.374 28.3275 141.289 28.2806C141.206 28.2314 141.118 28.1666 141.029 28.0838C140.937 28.0026 140.854 27.905 140.779 27.7894C140.701 27.6762 140.647 27.5465 140.615 27.402C140.521 27.5512 140.414 27.684 140.3 27.805C140.186 27.9268 140.055 28.0276 139.913 28.1135C139.767 28.197 139.607 28.2626 139.429 28.3072C139.253 28.3548 139.053 28.3774 138.827 28.3774C138.455 28.3774 138.124 28.3056 137.835 28.1666C137.547 28.026 137.301 27.8206 137.103 27.5504C136.904 27.2786 136.752 26.9491 136.648 26.5586C136.543 26.1697 136.491 25.7246 136.491 25.2224L136.49 25.0951ZM137.695 25.2216C137.695 25.566 137.724 25.8776 137.784 26.1517C137.845 26.4259 137.934 26.6609 138.056 26.8515C138.175 27.0451 138.328 27.192 138.514 27.295C138.698 27.3974 138.917 27.4473 139.17 27.4473C139.327 27.4473 139.469 27.4169 139.597 27.3575C139.725 27.2982 139.844 27.2185 139.952 27.1193C140.061 27.0217 140.157 26.9077 140.244 26.7788C140.33 26.6523 140.408 26.5164 140.476 26.3743V23.5942C140.408 23.4622 140.329 23.3349 140.241 23.2115C140.152 23.0897 140.056 22.9795 139.949 22.8835C139.844 22.7867 139.725 22.7109 139.597 22.6547C139.469 22.5984 139.332 22.5711 139.182 22.5711C138.929 22.5711 138.71 22.6344 138.522 22.7601C138.336 22.8866 138.18 23.0623 138.059 23.2865C137.936 23.5114 137.846 23.7777 137.784 24.0846C137.724 24.3923 137.695 24.7281 137.695 25.0928V25.2216Z" fill="#0C3E78"/>
<path d="M146.079 28.3759C145.655 28.3759 145.277 28.3009 144.941 28.1486C144.605 27.9964 144.32 27.7824 144.088 27.513C143.856 27.2412 143.678 26.9179 143.556 26.543C143.432 26.1682 143.371 25.7574 143.371 25.3123V24.8671C143.371 24.4571 143.424 24.0588 143.535 23.6691C143.642 23.2795 143.808 22.9327 144.029 22.6274C144.248 22.322 144.526 22.0776 144.863 21.8941C145.199 21.7098 145.591 21.6168 146.041 21.6168C146.447 21.6168 146.804 21.6848 147.107 21.8214C147.409 21.9573 147.66 22.1502 147.862 22.3985C148.063 22.6469 148.214 22.9476 148.313 23.299C148.414 23.6504 148.464 24.0409 148.464 24.4696V25.2779H144.593C144.593 25.281 144.593 25.281 144.591 25.2779C144.588 25.2732 144.586 25.2732 144.586 25.2779C144.591 25.5661 144.629 25.8456 144.701 26.1135C144.772 26.3814 144.883 26.6172 145.03 26.8179C145.177 27.0186 145.36 27.1779 145.581 27.2935C145.802 27.4107 146.061 27.4614 146.358 27.4489C146.648 27.4364 146.935 27.3849 147.221 27.2904C147.504 27.1959 147.771 27.046 148.016 26.8421L148.38 27.6137C148.043 27.8902 147.676 28.0854 147.279 28.2025C146.885 28.3181 146.483 28.3759 146.079 28.3759ZM148.05 20.7906H147.068L145.954 19.8152L144.847 20.7906H143.883L145.533 18.8093H146.381L148.05 20.7906ZM145.979 22.5547C145.79 22.5547 145.617 22.6008 145.457 22.693C145.3 22.7859 145.161 22.9116 145.044 23.0725C144.924 23.2326 144.826 23.4208 144.751 23.6379C144.675 23.8542 144.626 24.0901 144.604 24.3415C144.609 24.3462 144.612 24.3572 144.612 24.3728C144.612 24.3884 144.612 24.3978 144.612 24.4025H147.262V24.1557C147.262 23.9276 147.235 23.716 147.18 23.5208C147.127 23.3255 147.046 23.1561 146.936 23.0116C146.827 22.8671 146.693 22.7547 146.533 22.6742C146.372 22.5953 146.187 22.5547 145.979 22.5547Z" fill="#0C3E78"/>
<path d="M151.089 21.7355L151.21 22.7054C151.407 22.3633 151.66 22.097 151.971 21.9041C152.282 21.712 152.632 21.616 153.022 21.616C153.339 21.616 153.624 21.6667 153.872 21.769C154.12 21.8713 154.331 22.0283 154.504 22.2384C154.676 22.45 154.809 22.7148 154.899 23.0365C154.987 23.3575 155.035 23.7362 155.035 24.1743V28.2493H153.83V24.1923C153.83 23.9158 153.798 23.6745 153.737 23.4699C153.674 23.2645 153.589 23.0959 153.484 22.9639C153.377 22.8319 153.255 22.7335 153.118 22.6695C152.979 22.6046 152.831 22.5734 152.674 22.5734C152.43 22.5734 152.183 22.6499 151.934 22.8022C151.686 22.9537 151.467 23.1747 151.283 23.4645V28.2493H150.081V21.7362L151.089 21.7355Z" fill="#0C3E78"/>
<path d="M159.435 27.4481C159.731 27.4481 160.008 27.395 160.262 27.2865C160.518 27.1779 160.729 27.035 160.897 26.8515L161.325 27.5988C161.224 27.7043 161.111 27.8019 160.982 27.8979C160.854 27.9909 160.707 28.0736 160.545 28.1447C160.384 28.215 160.203 28.2712 160.009 28.3111C159.814 28.354 159.603 28.3751 159.374 28.3751C158.929 28.3751 158.538 28.297 158.198 28.1416C157.859 27.9846 157.575 27.7675 157.35 27.4903C157.122 27.213 156.95 26.8882 156.834 26.5125C156.717 26.1377 156.658 25.7285 156.658 25.2865V24.7023C156.658 24.2658 156.716 23.8581 156.834 23.4817C156.95 23.1037 157.122 22.7773 157.35 22.5C157.575 22.2228 157.859 22.0065 158.198 21.8495C158.538 21.6925 158.929 21.6152 159.374 21.6152C159.603 21.6152 159.814 21.6348 160.009 21.6754C160.203 21.7152 160.384 21.7699 160.545 21.8386C160.707 21.9057 160.854 21.9854 160.982 22.076C161.111 22.1666 161.227 22.2634 161.331 22.3681L160.897 23.1506C160.728 22.9702 160.518 22.8234 160.262 22.7109C160.009 22.5984 159.731 22.5422 159.435 22.5422C159.172 22.5422 158.945 22.6 158.751 22.7164C158.556 22.8327 158.396 22.9905 158.266 23.1896C158.138 23.388 158.039 23.623 157.97 23.894C157.903 24.1642 157.868 24.4524 157.863 24.7578V25.1357C157.863 25.4544 157.894 25.7535 157.96 26.0338C158.024 26.3142 158.12 26.5602 158.248 26.7687C158.377 26.9764 158.541 27.1412 158.739 27.263C158.937 27.3872 159.169 27.4481 159.435 27.4481Z" fill="#0C3E78"/>
<path d="M163.872 20.0502H162.669V18.8577H163.872V20.0502ZM163.872 28.2493H162.669V21.7362H163.872V28.2493Z" fill="#0C3E78"/>
<path d="M170.019 28.3696C169.931 28.3423 169.839 28.2947 169.744 28.2275C169.651 28.1619 169.561 28.0838 169.475 27.9971C169.392 27.9089 169.32 27.8113 169.26 27.7074C169.2 27.6035 169.158 27.4957 169.14 27.3888C169.039 27.5364 168.919 27.6722 168.776 27.7949C168.632 27.9182 168.478 28.0221 168.312 28.1072C168.145 28.1939 167.969 28.2611 167.785 28.3056C167.599 28.3532 167.413 28.3759 167.224 28.3759C166.915 28.3759 166.641 28.3298 166.403 28.24C166.163 28.1517 165.963 28.0221 165.801 27.8558C165.639 27.6894 165.516 27.4848 165.43 27.249C165.346 27.0092 165.303 26.7414 165.303 26.4454C165.303 26.1314 165.364 25.8503 165.485 25.602C165.603 25.3521 165.777 25.1412 166.005 24.9686C166.232 24.7968 166.505 24.664 166.827 24.5727C167.147 24.4797 167.512 24.4337 167.916 24.4337H169.011V23.7933C169.011 23.4028 168.918 23.0959 168.726 22.8718C168.536 22.6492 168.24 22.5391 167.838 22.543C167.651 22.543 167.469 22.5625 167.296 22.6C167.125 22.6391 166.963 22.6875 166.809 22.7476C166.657 22.8077 166.518 22.8749 166.391 22.9491C166.265 23.0233 166.153 23.0982 166.057 23.174L165.654 22.4227C165.731 22.3587 165.837 22.2814 165.981 22.19C166.123 22.0979 166.296 22.0096 166.499 21.9229C166.702 21.8378 166.929 21.7644 167.186 21.705C167.44 21.6449 167.723 21.6152 168.032 21.6152C168.352 21.6152 168.647 21.6637 168.917 21.7597C169.186 21.8565 169.416 21.9979 169.608 22.1838C169.802 22.3704 169.952 22.6 170.056 22.8733C170.163 23.1467 170.216 23.4575 170.216 23.8066V26.8046C170.216 26.9819 170.242 27.1389 170.291 27.2771C170.341 27.4145 170.433 27.5364 170.566 27.6418L170.019 28.3696ZM167.447 27.4114C167.62 27.4114 167.789 27.3841 167.953 27.3294C168.118 27.2716 168.269 27.1966 168.409 27.1037C168.547 27.0092 168.669 26.8991 168.772 26.7742C168.876 26.6508 168.957 26.5196 169.012 26.3821V25.2334H167.911C167.687 25.2334 167.487 25.2638 167.311 25.3263C167.139 25.3888 166.991 25.4754 166.873 25.5856C166.754 25.6957 166.664 25.8253 166.601 25.9729C166.54 26.1221 166.508 26.2814 166.508 26.4485C166.508 26.7382 166.587 26.9702 166.744 27.1474C166.9 27.3247 167.134 27.4114 167.447 27.4114Z" fill="#0C3E78"/>
<path d="M174.713 25.0951C174.713 24.5828 174.763 24.1119 174.86 23.684C174.954 23.256 175.101 22.889 175.299 22.582C175.495 22.2744 175.743 22.0369 176.042 21.8683C176.341 21.6996 176.693 21.616 177.098 21.616C177.446 21.616 177.751 21.6863 178.015 21.8269C178.279 21.9682 178.508 22.1681 178.701 22.429V18.8647H179.905V26.8054C179.905 27.0233 179.935 27.1896 179.995 27.3114C180.054 27.4302 180.142 27.5418 180.254 27.6426L179.713 28.3704C179.663 28.3595 179.599 28.3275 179.514 28.2806C179.431 28.2314 179.342 28.1666 179.252 28.0838C179.162 28.0026 179.078 27.905 179.002 27.7894C178.927 27.6762 178.871 27.5465 178.84 27.402C178.743 27.5512 178.639 27.684 178.523 27.805C178.409 27.9268 178.279 28.0276 178.134 28.1135C177.991 28.197 177.829 28.2626 177.654 28.3072C177.477 28.3548 177.276 28.3774 177.052 28.3774C176.678 28.3774 176.348 28.3056 176.058 28.1666C175.77 28.026 175.527 27.8206 175.327 27.5504C175.128 27.2786 174.978 26.9491 174.872 26.5586C174.768 26.1697 174.715 25.7246 174.715 25.2224V25.0951H174.713ZM175.918 25.2216C175.918 25.566 175.948 25.8776 176.008 26.1517C176.067 26.4259 176.159 26.6609 176.278 26.8515C176.4 27.0451 176.553 27.192 176.737 27.295C176.922 27.3974 177.142 27.4473 177.393 27.4473C177.549 27.4473 177.692 27.4169 177.822 27.3575C177.95 27.2982 178.067 27.2185 178.176 27.1193C178.284 27.0217 178.382 26.9077 178.469 26.7788C178.555 26.6523 178.632 26.5164 178.701 26.3743V23.5942C178.632 23.4622 178.554 23.3349 178.465 23.2115C178.377 23.0897 178.28 22.9795 178.174 22.8835C178.067 22.7867 177.95 22.7109 177.822 22.6547C177.692 22.5984 177.553 22.5711 177.406 22.5711C177.154 22.5711 176.934 22.6344 176.747 22.7601C176.561 22.8866 176.405 23.0623 176.283 23.2865C176.161 23.5114 176.068 23.7777 176.008 24.0846C175.948 24.3923 175.918 24.7281 175.918 25.0928V25.2216Z" fill="#0C3E78"/>
<path d="M184.303 28.3758C183.881 28.3758 183.501 28.3008 183.168 28.1485C182.831 27.9962 182.547 27.7823 182.312 27.5128C182.079 27.2411 181.904 26.9178 181.778 26.5429C181.658 26.168 181.597 25.7573 181.597 25.3121V24.867C181.597 24.457 181.65 24.0587 181.759 23.669C181.867 23.2793 182.032 22.9326 182.255 22.6272C182.474 22.3219 182.752 22.0775 183.089 21.8939C183.423 21.7096 183.816 21.6167 184.268 21.6167C184.672 21.6167 185.026 21.6846 185.329 21.8213C185.633 21.9572 185.886 22.1501 186.086 22.3984C186.287 22.6468 186.438 22.9474 186.539 23.2989C186.64 23.6503 186.69 24.0408 186.69 24.4695V25.2778H182.817C182.817 25.2809 182.817 25.2809 182.814 25.2778C182.812 25.2731 182.811 25.2731 182.811 25.2778C182.815 25.5659 182.855 25.8455 182.926 26.1134C182.997 26.3812 183.107 26.6171 183.254 26.8178C183.401 27.0185 183.585 27.1778 183.805 27.2934C184.026 27.4105 184.285 27.4613 184.583 27.4488C184.872 27.4363 185.16 27.3848 185.446 27.2903C185.729 27.1958 185.995 27.0458 186.241 26.842L186.604 27.6136C186.266 27.89 185.899 28.0853 185.504 28.2024C185.108 28.318 184.708 28.3758 184.303 28.3758ZM184.204 22.5546C184.015 22.5546 183.839 22.6007 183.682 22.6928C183.524 22.7858 183.386 22.9115 183.266 23.0724C183.149 23.2325 183.051 23.4207 182.975 23.6378C182.898 23.8541 182.851 24.09 182.829 24.3414C182.834 24.3461 182.837 24.357 182.837 24.3727C182.837 24.3883 182.837 24.3976 182.837 24.4023H185.485V24.1556C185.485 23.9275 185.46 23.7159 185.403 23.5206C185.35 23.3254 185.269 23.1559 185.16 23.0115C185.052 22.867 184.918 22.7545 184.756 22.6741C184.596 22.5952 184.411 22.5546 184.204 22.5546Z" fill="#0C3E78"/>
<path d="M82.8958 38.9811H79.3191V42.1189H83.4612V43.0467H78.1149V34.2798H83.4081V35.2177H79.3191V38.0549H82.8958V38.9811Z" fill="#0C3E78"/>
<path d="M84.677 39.8901C84.677 39.3778 84.7262 38.9061 84.8207 38.4789C84.9183 38.0518 85.0651 37.6839 85.2627 37.3762C85.4579 37.0693 85.7063 36.8319 86.0054 36.664C86.3029 36.4945 86.6567 36.4094 87.0612 36.4094C87.4072 36.4094 87.7125 36.4813 87.9765 36.6211C88.242 36.7616 88.4708 36.9631 88.6645 37.2232V33.6589H89.8664V41.5996C89.8664 41.8159 89.8968 41.9854 89.9562 42.1041C90.0171 42.2259 90.1038 42.336 90.217 42.4368L89.6743 43.1662C89.6266 43.1537 89.561 43.1232 89.4759 43.0748C89.3923 43.0271 89.3033 42.9631 89.2135 42.8811C89.1237 42.7976 89.0409 42.6984 88.9652 42.5851C88.8886 42.4696 88.834 42.3407 88.8019 42.1962C88.7059 42.3454 88.6005 42.4781 88.4864 42.6008C88.3724 42.7195 88.242 42.8233 88.0975 42.9077C87.9531 42.992 87.7906 43.0568 87.6157 43.1029C87.4408 43.149 87.2393 43.1732 87.0144 43.1732C86.6403 43.1732 86.3084 43.1029 86.0202 42.9623C85.7305 42.8218 85.4876 42.6164 85.2893 42.3446C85.0893 42.0744 84.9386 41.7433 84.8332 41.3544C84.7309 40.9655 84.6778 40.5203 84.6778 40.0166L84.677 39.8901ZM85.882 40.0166C85.882 40.3626 85.9125 40.6726 85.9718 40.9467C86.0312 41.2208 86.121 41.4559 86.242 41.6496C86.3638 41.8401 86.5169 41.9885 86.6996 42.09C86.8855 42.1923 87.1042 42.2423 87.3556 42.2423C87.5126 42.2423 87.6563 42.2134 87.7844 42.1525C87.9124 42.0947 88.0312 42.015 88.1397 41.9159C88.2483 41.8167 88.3459 41.7042 88.431 41.5754C88.5177 41.4457 88.5958 41.3114 88.6645 41.1724V38.3899C88.5958 38.2556 88.5169 38.1291 88.4279 38.0072C88.3396 37.8838 88.242 37.7753 88.1366 37.6792C88.0296 37.5816 87.9124 37.5066 87.7844 37.4504C87.6563 37.3942 87.5173 37.3653 87.3681 37.3653C87.1167 37.3653 86.8964 37.4293 86.709 37.5574C86.5247 37.6824 86.3685 37.8581 86.2451 38.0838C86.1233 38.3079 86.0319 38.5734 85.9718 38.8803C85.9125 39.1888 85.882 39.5238 85.882 39.8885V40.0166Z" fill="#0C3E78"/>
<path d="M95.7971 42.1962C95.605 42.5335 95.3473 42.7803 95.0209 42.9373C94.696 43.0927 94.3391 43.1724 93.9502 43.1724C93.6253 43.1724 93.3356 43.1177 93.0794 43.006C92.8264 42.8959 92.6078 42.7257 92.4328 42.4984C92.2555 42.2696 92.1204 41.9799 92.0259 41.6276C91.933 41.2786 91.8854 40.8608 91.8854 40.3781V36.5328H93.0888V40.3898C93.0888 40.7358 93.113 41.0248 93.1591 41.2575C93.2036 41.4894 93.2731 41.6768 93.3637 41.819C93.4535 41.9627 93.5699 42.0642 93.7065 42.1275C93.8455 42.1884 94.0103 42.2204 94.1978 42.2204C94.3774 42.2204 94.5422 42.1931 94.6921 42.1392C94.8444 42.0845 94.9803 42.0095 95.1005 41.9135C95.2208 41.8159 95.3262 41.7057 95.4192 41.5777C95.5105 41.4527 95.5917 41.3168 95.6589 41.1731L95.648 36.532H96.8639V41.5988C96.8717 41.7971 96.899 41.9572 96.942 42.0837C96.9865 42.2102 97.0763 42.3289 97.2138 42.4422L96.6663 43.1653C96.5304 43.1177 96.4086 43.0482 96.3047 42.9576C96.2009 42.8662 96.1111 42.7717 96.0361 42.6757C95.9627 42.5765 95.9049 42.482 95.8666 42.3938C95.8245 42.3079 95.8018 42.2422 95.7971 42.1962Z" fill="#0C3E78"/>
<path d="M101.331 42.2439C101.628 42.2439 101.902 42.1908 102.159 42.0822C102.414 41.9737 102.625 41.8292 102.794 41.6503L103.221 42.3946C103.122 42.5 103.007 42.6008 102.879 42.6921C102.752 42.7866 102.605 42.871 102.444 42.9405C102.279 43.0092 102.102 43.0654 101.906 43.1084C101.711 43.1513 101.5 43.1724 101.271 43.1724C100.827 43.1724 100.433 43.0928 100.095 42.9373C99.7556 42.7804 99.4721 42.5633 99.2449 42.2876C99.0192 42.0104 98.8466 41.6839 98.731 41.3083C98.6154 40.9327 98.5553 40.5258 98.5553 40.0838V39.4996C98.5553 39.0615 98.6147 38.6546 98.731 38.2767C98.8466 37.9003 99.0192 37.5738 99.2449 37.2958C99.4721 37.0193 99.7556 36.803 100.095 36.6461C100.433 36.4891 100.827 36.4094 101.271 36.4094C101.501 36.4094 101.711 36.4305 101.906 36.4703C102.102 36.5117 102.279 36.5648 102.444 36.6336C102.605 36.7007 102.752 36.7812 102.879 36.8717C103.007 36.9631 103.124 37.0592 103.228 37.163L102.794 37.9455C102.625 37.7667 102.415 37.6191 102.159 37.5059C101.903 37.3942 101.628 37.338 101.331 37.338C101.068 37.338 100.841 37.3958 100.647 37.5121C100.454 37.6293 100.292 37.7886 100.164 37.9846C100.034 38.183 99.9368 38.418 99.8681 38.6874C99.7993 38.9608 99.7642 39.2489 99.7595 39.5535V39.933C99.7595 40.2486 99.7915 40.5477 99.8556 40.8296C99.9196 41.1099 100.017 41.3528 100.145 41.5629C100.273 41.7722 100.437 41.937 100.635 42.0603C100.835 42.183 101.065 42.2439 101.331 42.2439Z" fill="#0C3E78"/>
<path d="M108.689 43.1663C108.601 43.1374 108.508 43.0897 108.414 43.0241C108.319 42.9585 108.23 42.8804 108.145 42.7922C108.061 42.7039 107.988 42.6094 107.929 42.5025C107.87 42.397 107.828 42.2932 107.81 42.1838C107.708 42.333 107.588 42.4673 107.444 42.5907C107.3 42.7125 107.146 42.818 106.98 42.9046C106.814 42.9882 106.638 43.0554 106.454 43.1014C106.269 43.1475 106.083 43.1717 105.892 43.1717C105.585 43.1717 105.311 43.1257 105.071 43.0358C104.833 42.946 104.632 42.818 104.47 42.6516C104.307 42.4822 104.183 42.2807 104.099 42.0417C104.014 41.802 103.971 41.5357 103.971 41.2381C103.971 40.9257 104.032 40.6446 104.152 40.3947C104.273 40.1479 104.447 39.9371 104.674 39.7629C104.9 39.5903 105.175 39.4576 105.495 39.3662C105.815 39.2748 106.18 39.2272 106.585 39.2272H107.68V38.5884C107.68 38.1963 107.585 37.8894 107.395 37.6653C107.204 37.4427 106.908 37.3326 106.507 37.3373C106.318 37.3373 106.136 37.3552 105.964 37.3935C105.792 37.4318 105.63 37.4818 105.476 37.5411C105.325 37.6005 105.185 37.6692 105.06 37.7426C104.932 37.8176 104.822 37.8918 104.724 37.9683L104.321 37.2178C104.397 37.1538 104.505 37.0757 104.647 36.9827C104.791 36.8929 104.963 36.8031 105.166 36.7172C105.369 36.6313 105.598 36.5587 105.852 36.4993C106.107 36.44 106.39 36.408 106.699 36.408C107.019 36.408 107.314 36.4579 107.584 36.5548C107.854 36.6524 108.084 36.7914 108.276 36.9788C108.469 37.1647 108.619 37.3951 108.725 37.6684C108.832 37.9417 108.883 38.251 108.883 38.6016V41.5989C108.883 41.7777 108.909 41.9347 108.96 42.0729C109.01 42.2104 109.1 42.3322 109.233 42.4361L108.689 43.1663ZM106.116 42.2088C106.29 42.2088 106.458 42.1799 106.623 42.1253C106.786 42.069 106.939 41.9941 107.076 41.8996C107.217 41.8035 107.337 41.695 107.442 41.5716C107.546 41.4466 107.625 41.317 107.682 41.1811V40.0292H106.581C106.355 40.0292 106.157 40.0597 105.981 40.1237C105.807 40.1846 105.661 40.2713 105.542 40.3814C105.424 40.4915 105.332 40.6212 105.271 40.7688C105.209 40.9164 105.177 41.0772 105.177 41.2444C105.177 41.5341 105.255 41.7676 105.412 41.9441C105.569 42.1198 105.804 42.2088 106.116 42.2088Z" fill="#0C3E78"/>
<path d="M113.281 42.2394C113.578 42.2394 113.854 42.1847 114.109 42.0793C114.364 41.9707 114.575 41.8278 114.745 41.6505L115.171 42.3948C114.983 42.5931 114.745 42.7642 114.455 42.9118C114.166 43.057 113.816 43.1421 113.401 43.1663L113.274 43.5935C113.395 43.613 113.508 43.6466 113.609 43.6958C113.711 43.7435 113.799 43.8098 113.874 43.8942C113.949 43.9793 114.009 44.0816 114.052 44.2011C114.098 44.3214 114.117 44.4682 114.117 44.6361C114.117 44.8938 114.068 45.1117 113.97 45.2952C113.873 45.4779 113.738 45.6294 113.563 45.7466C113.391 45.8653 113.187 45.9543 112.95 46.009C112.712 46.0652 112.456 46.0925 112.18 46.0925L112.144 45.4248C112.264 45.4248 112.383 45.4108 112.502 45.385C112.621 45.3592 112.725 45.3194 112.818 45.2647C112.911 45.2101 112.986 45.1398 113.043 45.057C113.101 44.9719 113.13 44.8696 113.13 44.7532C113.13 44.5674 113.071 44.4127 112.95 44.2893C112.83 44.1675 112.611 44.0941 112.294 44.0699L112.554 43.1C112.215 43.0281 111.919 42.9016 111.666 42.7204C111.41 42.5416 111.196 42.319 111.024 42.0566C110.851 41.7927 110.722 41.4936 110.635 41.1585C110.55 40.8243 110.505 40.4643 110.505 40.0847V39.5006C110.505 39.0625 110.563 38.6556 110.681 38.2776C110.797 37.9012 110.969 37.5748 111.195 37.2968C111.422 37.0203 111.706 36.804 112.045 36.647C112.383 36.4901 112.777 36.4104 113.222 36.4104C113.451 36.4104 113.663 36.4315 113.857 36.4713C114.051 36.5127 114.231 36.5658 114.394 36.6345C114.556 36.7017 114.703 36.7821 114.829 36.8727C114.959 36.9641 115.075 37.0601 115.178 37.164L114.747 37.9465C114.576 37.7677 114.365 37.6201 114.111 37.5068C113.856 37.3952 113.58 37.3389 113.282 37.3389C113.021 37.3389 112.793 37.3967 112.599 37.5131C112.405 37.6295 112.244 37.788 112.116 37.9856C111.986 38.1824 111.888 38.419 111.82 38.6884C111.751 38.9602 111.716 39.2468 111.711 39.5514V39.9293C111.711 40.2448 111.745 40.5439 111.807 40.8259C111.871 41.1062 111.967 41.3507 112.097 41.5584C112.225 41.7677 112.388 41.9332 112.586 42.0558C112.784 42.1769 113.016 42.2394 113.281 42.2394Z" fill="#0C3E78"/>
<path d="M120.65 43.1662C120.563 43.1373 120.47 43.0896 120.376 43.024C120.28 42.9584 120.192 42.8804 120.109 42.7921C120.024 42.7039 119.952 42.6094 119.891 42.5024C119.83 42.397 119.791 42.2931 119.771 42.1838C119.672 42.3329 119.55 42.4672 119.406 42.5906C119.264 42.7125 119.109 42.8179 118.943 42.9046C118.776 42.9881 118.601 43.0553 118.416 43.1014C118.232 43.1474 118.045 43.1716 117.856 43.1716C117.547 43.1716 117.274 43.1256 117.034 43.0358C116.794 42.946 116.594 42.8179 116.432 42.6515C116.269 42.4821 116.147 42.2806 116.061 42.0416C115.977 41.8019 115.936 41.5356 115.936 41.238C115.936 40.9257 115.995 40.6445 116.117 40.3946C116.236 40.1478 116.41 39.937 116.637 39.7628C116.863 39.5902 117.138 39.4575 117.458 39.3661C117.78 39.2747 118.143 39.2271 118.548 39.2271H119.643V38.5883C119.643 38.1963 119.549 37.8893 119.358 37.6652C119.166 37.4426 118.87 37.3325 118.47 37.3372C118.281 37.3372 118.099 37.3552 117.927 37.3934C117.756 37.4317 117.593 37.4817 117.441 37.541C117.289 37.6004 117.149 37.6691 117.021 37.7425C116.895 37.8175 116.785 37.8917 116.687 37.9682L116.283 37.2177C116.359 37.1537 116.47 37.0756 116.612 36.9827C116.754 36.8929 116.928 36.803 117.131 36.7171C117.332 36.632 117.561 36.5586 117.816 36.4993C118.07 36.4399 118.353 36.4079 118.662 36.4079C118.982 36.4079 119.278 36.4579 119.547 36.5547C119.817 36.6523 120.048 36.7913 120.24 36.9788C120.432 37.1646 120.582 37.395 120.688 37.6683C120.793 37.9417 120.848 38.2509 120.848 38.6016V41.5988C120.848 41.7777 120.872 41.9346 120.923 42.0729C120.973 42.2103 121.065 42.3321 121.196 42.436L120.65 43.1662ZM120.741 33.8823C120.741 34.0838 120.704 34.2665 120.633 34.4329C120.559 34.6008 120.465 34.7437 120.347 34.8616C120.227 34.9788 120.093 35.0725 119.941 35.1381C119.788 35.2037 119.628 35.2373 119.463 35.2373C119.247 35.2373 119.065 35.2115 118.918 35.1623C118.768 35.1123 118.637 35.0553 118.519 34.9928C118.404 34.9303 118.292 34.8757 118.185 34.8265C118.078 34.7749 117.958 34.7499 117.82 34.7499C117.665 34.7499 117.527 34.7991 117.412 34.8975C117.296 34.9936 117.236 35.1357 117.236 35.3216L116.572 35.206C116.572 35.0092 116.609 34.8265 116.679 34.657C116.75 34.486 116.844 34.3399 116.963 34.2189C117.082 34.0939 117.217 33.9995 117.371 33.9292C117.527 33.8573 117.687 33.8206 117.856 33.8206C118.061 33.8206 118.236 33.8464 118.379 33.8972C118.525 33.9471 118.656 34.0041 118.775 34.0666C118.893 34.1275 119.008 34.1838 119.117 34.2345C119.229 34.2845 119.356 34.3095 119.5 34.3095C119.57 34.3095 119.644 34.2986 119.712 34.2743C119.784 34.2501 119.845 34.215 119.899 34.1658C119.954 34.1182 119.997 34.0588 120.032 33.987C120.066 33.9167 120.082 33.8331 120.082 33.7371L120.741 33.8823ZM118.08 42.2087C118.252 42.2087 118.42 42.1798 118.584 42.1252C118.749 42.069 118.901 41.994 119.039 41.8995C119.178 41.8034 119.299 41.6949 119.403 41.5715C119.509 41.4465 119.588 41.3169 119.645 41.181V40.0291H118.543C118.319 40.0291 118.119 40.0596 117.944 40.1236C117.768 40.1845 117.622 40.2712 117.504 40.3813C117.385 40.4914 117.296 40.6211 117.232 40.7687C117.17 40.9163 117.141 41.0772 117.141 41.2443C117.141 41.534 117.219 41.7675 117.376 41.944C117.531 42.1197 117.766 42.2087 118.08 42.2087Z" fill="#0C3E78"/>
<path d="M122.469 39.5543C122.469 39.1045 122.53 38.6883 122.654 38.3048C122.78 37.9206 122.959 37.5879 123.193 37.3076C123.428 37.0272 123.713 36.807 124.049 36.6484C124.383 36.4899 124.763 36.4087 125.189 36.4087C125.614 36.4087 125.995 36.4899 126.334 36.6484C126.67 36.807 126.957 37.0264 127.192 37.3076C127.427 37.5887 127.608 37.9206 127.733 38.3048C127.859 38.6875 127.922 39.1037 127.922 39.5543V40.0346C127.922 40.4923 127.859 40.9116 127.733 41.2958C127.608 41.6785 127.426 42.0096 127.192 42.2876C126.957 42.5641 126.672 42.7804 126.337 42.9374C126 43.0928 125.622 43.1725 125.203 43.1725C124.772 43.1725 124.388 43.0928 124.052 42.9374C123.713 42.7804 123.428 42.5625 123.193 42.2845C122.958 42.0057 122.78 41.673 122.654 41.2904C122.53 40.9077 122.469 40.4883 122.469 40.0354V39.5543ZM123.673 40.0354C123.673 40.3525 123.703 40.6469 123.764 40.9171C123.828 41.1889 123.921 41.4231 124.049 41.6184C124.174 41.8152 124.334 41.969 124.526 42.0807C124.72 42.1892 124.946 42.2439 125.202 42.2439C125.455 42.2439 125.674 42.1877 125.863 42.0776C126.053 41.9636 126.209 41.8089 126.337 41.6121C126.463 41.4169 126.558 41.1818 126.622 40.9108C126.686 40.6406 126.719 40.3478 126.719 40.0354V39.5551C126.719 39.2412 126.686 38.9514 126.622 38.6844C126.558 38.4173 126.462 38.1838 126.333 37.9854C126.205 37.7886 126.045 37.6317 125.855 37.5184C125.664 37.4067 125.442 37.349 125.188 37.349C124.929 37.349 124.703 37.4083 124.514 37.5215C124.326 37.6371 124.168 37.7933 124.042 37.9917C123.914 38.19 123.823 38.4251 123.762 38.693C123.701 38.9632 123.672 39.2498 123.672 39.5551L123.673 40.0354Z" fill="#0C3E78"/>
<path d="M136.581 43.1663C136.493 43.1374 136.401 43.0897 136.306 43.0241C136.213 42.9585 136.123 42.8804 136.038 42.7922C135.954 42.7039 135.882 42.6094 135.821 42.5025C135.762 42.397 135.72 42.2932 135.701 42.1838C135.602 42.333 135.478 42.4673 135.336 42.5907C135.193 42.7125 135.039 42.818 134.874 42.9046C134.706 42.9882 134.531 43.0554 134.346 43.1014C134.161 43.1475 133.975 43.1717 133.786 43.1717C133.477 43.1717 133.203 43.1257 132.964 43.0358C132.726 42.946 132.524 42.818 132.362 42.6516C132.2 42.4822 132.077 42.2807 131.991 42.0417C131.909 41.802 131.866 41.5357 131.866 41.2381C131.866 40.9257 131.925 40.6446 132.047 40.3947C132.166 40.1479 132.34 39.9371 132.567 39.7629C132.794 39.5903 133.068 39.4576 133.389 39.3662C133.71 39.2748 134.073 39.2272 134.479 39.2272H135.574V38.5884C135.574 38.1963 135.478 37.8894 135.289 37.6653C135.098 37.4427 134.802 37.3326 134.401 37.3373C134.213 37.3373 134.03 37.3552 133.858 37.3935C133.687 37.4318 133.524 37.4818 133.371 37.5411C133.219 37.6005 133.079 37.6692 132.954 37.7426C132.825 37.8176 132.715 37.8918 132.618 37.9683L132.213 37.2178C132.29 37.1538 132.401 37.0757 132.543 36.9827C132.685 36.8929 132.857 36.8031 133.06 36.7172C133.263 36.6313 133.492 36.5587 133.746 36.4993C134.001 36.44 134.284 36.408 134.591 36.408C134.913 36.408 135.207 36.4579 135.478 36.5548C135.748 36.6524 135.978 36.7914 136.17 36.9788C136.364 37.1647 136.513 37.3951 136.619 37.6684C136.726 37.9417 136.779 38.251 136.779 38.6016V41.5989C136.779 41.7777 136.803 41.9347 136.854 42.0729C136.904 42.2104 136.996 42.3322 137.127 42.4361L136.581 43.1663ZM134.009 42.2088C134.182 42.2088 134.351 42.1799 134.515 42.1253C134.679 42.069 134.831 41.9941 134.968 41.8996C135.107 41.8035 135.229 41.695 135.333 41.5716C135.439 41.4466 135.517 41.317 135.574 41.1811V40.0292H134.473C134.249 40.0292 134.049 40.0597 133.874 40.1237C133.698 40.1846 133.552 40.2713 133.434 40.3814C133.316 40.4915 133.226 40.6212 133.164 40.7688C133.101 40.9164 133.069 41.0772 133.069 41.2444C133.069 41.5341 133.149 41.7676 133.306 41.9441C133.462 42.1198 133.697 42.2088 134.009 42.2088Z" fill="#0C3E78"/>
<path d="M141.782 43.0459V34.2798H143.856C144.408 34.2798 144.927 34.3516 145.41 34.4961C145.891 34.6414 146.31 34.8741 146.67 35.1951C147.027 35.5152 147.307 35.9346 147.512 36.45C147.717 36.9655 147.82 37.5926 147.82 38.3305V38.9983C147.82 39.6222 147.735 40.1806 147.564 40.682C147.393 41.181 147.15 41.605 146.831 41.9541C146.515 42.3048 146.13 42.5734 145.677 42.7624C145.226 42.9498 144.719 43.0443 144.155 43.0443H141.782V43.0459ZM142.986 35.2185V42.1189H144.132C144.532 42.1189 144.889 42.0471 145.195 41.9057C145.504 41.762 145.765 41.5582 145.976 41.288C146.187 41.0193 146.347 40.6913 146.454 40.3071C146.562 39.9229 146.616 39.4863 146.616 38.9998V38.3196C146.616 37.8471 146.563 37.42 146.454 37.035C146.346 36.65 146.187 36.3243 145.979 36.0572C145.77 35.787 145.509 35.5801 145.2 35.4364C144.889 35.2895 144.532 35.2185 144.132 35.2185H142.986Z" fill="#0C3E78"/>
<path d="M150.742 34.8445H149.537V33.6536H150.742V34.8445ZM150.742 43.046H149.537V36.5329H150.742V43.046Z" fill="#0C3E78"/>
<path d="M155.664 41.4153C155.664 41.313 155.652 41.2122 155.626 41.1162C155.6 41.017 155.548 40.9225 155.467 40.8343C155.386 40.7429 155.271 40.6554 155.115 40.5719C154.961 40.4867 154.755 40.404 154.497 40.3235C154.136 40.2165 153.827 40.0994 153.571 39.9791C153.314 39.8573 153.103 39.7167 152.938 39.5613C152.773 39.4044 152.653 39.2255 152.576 39.024C152.5 38.8241 152.462 38.589 152.462 38.3196C152.462 38.0463 152.512 37.7948 152.61 37.5613C152.708 37.3278 152.848 37.1263 153.031 36.9576C153.212 36.7851 153.437 36.6539 153.7 36.5562C153.961 36.4602 154.26 36.4094 154.594 36.4094C154.878 36.4094 155.132 36.4352 155.36 36.486C155.587 36.5367 155.791 36.6 155.968 36.6765C156.148 36.753 156.301 36.8319 156.429 36.9194C156.557 37.0068 156.668 37.0888 156.761 37.1638L156.435 37.9947C156.291 37.894 156.15 37.8042 156.011 37.723C155.872 37.6433 155.734 37.5754 155.595 37.5215C155.457 37.4684 155.316 37.4254 155.171 37.3981C155.025 37.3692 154.875 37.3552 154.713 37.3552C154.508 37.3552 154.338 37.3794 154.199 37.4254C154.06 37.4731 153.951 37.534 153.871 37.6082C153.79 37.6847 153.734 37.773 153.7 37.8706C153.665 37.9698 153.649 38.0736 153.649 38.1798C153.649 38.2681 153.656 38.354 153.676 38.436C153.694 38.518 153.738 38.6008 153.813 38.6812C153.888 38.7593 153.999 38.8366 154.148 38.9147C154.297 38.9912 154.503 39.067 154.767 39.142C155.503 39.3645 156.034 39.6457 156.364 39.9822C156.692 40.3212 156.857 40.7187 156.857 41.1732C156.857 41.484 156.805 41.7651 156.701 42.0119C156.597 42.2587 156.451 42.4664 156.261 42.6375C156.073 42.8085 155.845 42.9397 155.576 43.0326C155.306 43.1256 155.008 43.1716 154.685 43.1716C154.211 43.1716 153.776 43.1029 153.378 42.967C152.981 42.8296 152.635 42.6484 152.342 42.418L152.679 41.5762C152.992 41.7808 153.305 41.9409 153.616 42.0549C153.927 42.1689 154.258 42.2259 154.613 42.2259C154.808 42.2259 154.975 42.2048 155.112 42.1603C155.248 42.1142 155.356 42.0549 155.437 41.9791C155.517 41.9026 155.576 41.8143 155.611 41.7183C155.647 41.6199 155.664 41.5176 155.664 41.4153Z" fill="#0C3E78"/>
<path d="M159.831 34.9358V36.5328H161.139V37.4098H159.831V41.3239C159.831 41.6457 159.889 41.8729 160.007 42.0072C160.123 42.1416 160.289 42.2087 160.506 42.2087C160.591 42.2087 160.685 42.1947 160.787 42.1705C160.889 42.1447 160.985 42.1142 161.072 42.0822L161.212 42.9077C161.154 42.9397 161.082 42.9733 160.996 43.0037C160.912 43.0358 160.819 43.0631 160.719 43.0873C160.622 43.1115 160.523 43.1334 160.422 43.1482C160.323 43.1638 160.23 43.1724 160.145 43.1724C159.907 43.1724 159.697 43.1357 159.508 43.0654C159.324 42.9951 159.165 42.8866 159.034 42.739C158.904 42.5914 158.804 42.3985 158.733 42.1697C158.663 41.9377 158.626 41.6621 158.626 41.3411V37.409H157.688V36.5328H158.626V34.9358H159.831Z" fill="#0C3E78"/>
<path d="M166.676 43.1661C166.59 43.1372 166.497 43.0896 166.403 43.024C166.308 42.9584 166.219 42.8803 166.134 42.7921C166.05 42.7038 165.977 42.6093 165.918 42.5023C165.857 42.3969 165.817 42.293 165.798 42.1837C165.697 42.3329 165.577 42.4672 165.435 42.5906C165.291 42.7124 165.137 42.8178 164.969 42.9045C164.803 42.9881 164.626 43.0552 164.443 43.1013C164.258 43.1474 164.07 43.1716 163.883 43.1716C163.574 43.1716 163.299 43.1255 163.062 43.0357C162.821 42.9459 162.622 42.8178 162.46 42.6515C162.297 42.482 162.173 42.2805 162.089 42.0416C162.004 41.8018 161.961 41.5355 161.961 41.238C161.961 40.9256 162.023 40.6445 162.144 40.3946C162.262 40.1478 162.437 39.9369 162.662 39.7628C162.889 39.5902 163.163 39.4574 163.485 39.3661C163.806 39.2747 164.169 39.2271 164.574 39.2271H165.67V38.5882C165.67 38.1962 165.576 37.8893 165.384 37.6652C165.195 37.4426 164.897 37.3325 164.496 37.3372C164.308 37.3372 164.126 37.3551 163.956 37.3934C163.782 37.4317 163.619 37.4816 163.467 37.541C163.314 37.6003 163.175 37.6691 163.05 37.7425C162.922 37.8174 162.811 37.8916 162.715 37.9682L162.312 37.2177C162.388 37.1536 162.496 37.0755 162.638 36.9826C162.78 36.8928 162.954 36.803 163.155 36.7171C163.361 36.632 163.587 36.5586 163.843 36.4992C164.099 36.4399 164.38 36.4078 164.69 36.4078C165.01 36.4078 165.304 36.4578 165.574 36.5547C165.843 36.6523 166.073 36.7913 166.267 36.9787C166.459 37.1646 166.609 37.395 166.714 37.6683C166.822 37.9416 166.874 38.2509 166.874 38.6015V41.5988C166.874 41.7776 166.9 41.9346 166.95 42.0728C167 42.2103 167.091 42.3321 167.224 42.436L166.676 43.1661ZM166.779 35.5918H165.798L164.684 34.6156L163.577 35.5918H162.613L164.262 33.6121H165.111L166.779 35.5918ZM164.106 42.2087C164.279 42.2087 164.448 42.1798 164.611 42.1251C164.775 42.0689 164.926 41.9939 165.067 41.8994C165.204 41.8034 165.326 41.6948 165.43 41.5714C165.534 41.4465 165.614 41.3169 165.671 41.181V40.0291H164.57C164.344 40.0291 164.146 40.0595 163.97 40.1236C163.796 40.1845 163.65 40.2712 163.53 40.3813C163.413 40.4914 163.322 40.621 163.26 40.7686C163.199 40.9162 163.167 41.0771 163.167 41.2442C163.167 41.534 163.245 41.7675 163.402 41.944C163.559 42.1197 163.794 42.2087 164.106 42.2087Z" fill="#0C3E78"/>
<path d="M169.857 36.5328L169.976 37.4996C170.174 37.1591 170.426 36.8928 170.737 36.6992C171.05 36.507 171.399 36.4094 171.788 36.4094C172.105 36.4094 172.39 36.461 172.638 36.5648C172.886 36.6671 173.097 36.8241 173.271 37.035C173.444 37.2458 173.575 37.5106 173.665 37.8323C173.755 38.1541 173.801 38.532 173.801 38.9701V43.0459H172.596V38.9873C172.596 38.7109 172.564 38.4703 172.503 38.2657C172.44 38.0611 172.356 37.8917 172.251 37.7597C172.143 37.6269 172.023 37.5293 171.884 37.4653C171.745 37.4012 171.599 37.3676 171.442 37.3676C171.196 37.3676 170.947 37.4442 170.7 37.5965C170.452 37.7487 170.235 37.9705 170.049 38.2587V43.0467H168.846V36.5336L169.857 36.5328Z" fill="#0C3E78"/>
<path d="M178.2 42.2439C178.496 42.2439 178.773 42.1908 179.027 42.0822C179.283 41.9737 179.496 41.8292 179.663 41.6503L180.091 42.3946C179.989 42.5 179.877 42.6008 179.749 42.6921C179.619 42.7866 179.474 42.871 179.312 42.9405C179.149 43.0092 178.97 43.0654 178.775 43.1084C178.58 43.1513 178.368 43.1724 178.139 43.1724C177.694 43.1724 177.303 43.0928 176.963 42.9373C176.624 42.7804 176.341 42.5633 176.115 42.2876C175.888 42.0104 175.715 41.6839 175.601 41.3083C175.484 40.9334 175.424 40.5258 175.424 40.0838V39.4996C175.424 39.0615 175.483 38.6546 175.601 38.2767C175.715 37.9003 175.888 37.5738 176.115 37.2958C176.341 37.0193 176.624 36.803 176.963 36.6461C177.303 36.4891 177.694 36.4094 178.139 36.4094C178.368 36.4094 178.58 36.4305 178.775 36.4703C178.97 36.5117 179.149 36.5648 179.312 36.6336C179.474 36.7007 179.619 36.7812 179.749 36.8717C179.877 36.9631 179.993 37.0592 180.098 37.163L179.663 37.9455C179.495 37.7667 179.283 37.6191 179.027 37.5059C178.774 37.3942 178.496 37.338 178.2 37.338C177.939 37.338 177.712 37.3958 177.517 37.5121C177.321 37.6293 177.16 37.7886 177.032 37.9846C176.904 38.183 176.806 38.418 176.737 38.6874C176.669 38.9608 176.633 39.2489 176.629 39.5535V39.933C176.629 40.2486 176.661 40.5477 176.725 40.8296C176.789 41.1099 176.885 41.3528 177.013 41.5629C177.143 41.7722 177.306 41.937 177.504 42.0603C177.703 42.183 177.936 42.2439 178.2 42.2439Z" fill="#0C3E78"/>
<path d="M182.637 34.8445H181.434V33.6536H182.637V34.8445ZM182.637 43.046H181.434V36.5329H182.637V43.046Z" fill="#0C3E78"/>
<path d="M188.784 43.1663C188.696 43.1374 188.604 43.0897 188.509 43.0241C188.416 42.9585 188.326 42.8804 188.242 42.7922C188.158 42.7039 188.085 42.6094 188.026 42.5025C187.966 42.397 187.925 42.2932 187.907 42.1838C187.805 42.333 187.685 42.4673 187.542 42.5907C187.397 42.7125 187.245 42.818 187.077 42.9046C186.911 42.9882 186.735 43.0554 186.551 43.1014C186.365 43.1475 186.178 43.1717 185.989 43.1717C185.681 43.1717 185.407 43.1257 185.168 43.0358C184.93 42.946 184.728 42.818 184.567 42.6516C184.404 42.4822 184.279 42.2807 184.196 42.0417C184.111 41.802 184.068 41.5357 184.068 41.2381C184.068 40.9257 184.129 40.6446 184.249 40.3947C184.369 40.1479 184.544 39.9371 184.769 39.7629C184.997 39.5903 185.271 39.4576 185.592 39.3662C185.912 39.2748 186.277 39.2272 186.682 39.2272H187.775V38.5884C187.775 38.1963 187.682 37.8894 187.49 37.6653C187.301 37.4427 187.005 37.3326 186.602 37.3373C186.415 37.3373 186.233 37.3552 186.061 37.3935C185.889 37.4318 185.725 37.4818 185.573 37.5411C185.421 37.6005 185.282 37.6692 185.157 37.7426C185.027 37.8176 184.917 37.8918 184.821 37.9683L184.418 37.2178C184.494 37.1538 184.602 37.0757 184.744 36.9827C184.888 36.8929 185.06 36.8031 185.263 36.7172C185.466 36.6313 185.693 36.5587 185.949 36.4993C186.204 36.44 186.487 36.408 186.796 36.408C187.116 36.408 187.41 36.4579 187.681 36.5548C187.949 36.6524 188.181 36.7914 188.372 36.9788C188.567 37.1647 188.715 37.3951 188.822 37.6684C188.929 37.9417 188.98 38.251 188.98 38.6016V41.5989C188.98 41.7777 189.006 41.9347 189.057 42.0729C189.107 42.2104 189.197 42.3322 189.33 42.4361L188.784 43.1663ZM186.212 42.2088C186.387 42.2088 186.555 42.1799 186.72 42.1253C186.883 42.069 187.034 41.9941 187.173 41.8996C187.312 41.8035 187.434 41.695 187.539 41.5716C187.642 41.4466 187.722 41.317 187.777 41.1811V40.0292H186.678C186.452 40.0292 186.254 40.0597 186.078 40.1237C185.902 40.1846 185.758 40.2713 185.638 40.3814C185.521 40.4915 185.43 40.6212 185.367 40.7688C185.307 40.9164 185.275 41.0772 185.275 41.2444C185.275 41.5341 185.353 41.7676 185.51 41.9441C185.667 42.1198 185.9 42.2088 186.212 42.2088Z" fill="#0C3E78"/>
</svg>
